<?xml version="1.0" standalone="no"?>
<svg xmlns="http://www.w3.org/2000/svg" width="512" height="512" xmlns:xlink="http://www.w3.org/1999/xlink"><style>.background-color{ fill: #ffffff; fill-opacity: 1 }.dot-color{ fill: #FFFFFF; fill-opacity: 1 }.corners-square-color-0-0{ fill: #FFFFFF; fill-opacity: 1 }.corners-dot-color-0-0{ fill: #FFFFFF; fill-opacity: 1 }.corners-square-color-1-0{ fill: #FFFFFF; fill-opacity: 1 }.corners-dot-color-1-0{ fill: #FFFFFF; fill-opacity: 1 }.corners-square-color-0-1{ fill: #FFFFFF; fill-opacity: 1 }.corners-dot-color-0-1{ fill: #FFFFFF; fill-opacity: 1 }</style><defs/><g class="dot-color"><rect x="168" y="24" width="16" height="16" transform="rotate(0,176,32)"/><rect x="184" y="24" width="16" height="16" transform="rotate(0,192,32)"/><rect x="200" y="24" width="16" height="16" transform="rotate(0,208,32)"/><rect x="232" y="24" width="16" height="16" transform="rotate(0,240,32)"/><rect x="248" y="24" width="16" height="16" transform="rotate(0,256,32)"/><rect x="264" y="24" width="16" height="16" transform="rotate(0,272,32)"/><rect x="296" y="24" width="16" height="16" transform="rotate(0,304,32)"/><rect x="312" y="24" width="16" height="16" transform="rotate(0,320,32)"/><rect x="328" y="24" width="16" height="16" transform="rotate(0,336,32)"/><rect x="168" y="40" width="16" height="16" transform="rotate(0,176,48)"/><rect x="184" y="40" width="16" height="16" transform="rotate(0,192,48)"/><rect x="280" y="40" width="16" height="16" transform="rotate(0,288,48)"/><rect x="328" y="40" width="16" height="16" transform="rotate(0,336,48)"/><rect x="168" y="56" width="16" height="16" transform="rotate(0,176,64)"/><rect x="184" y="56" width="16" height="16" transform="rotate(0,192,64)"/><rect x="200" y="56" width="16" height="16" transform="rotate(0,208,64)"/><rect x="264" y="56" width="16" height="16" transform="rotate(0,272,64)"/><rect x="296" y="56" width="16" height="16" transform="rotate(0,304,64)"/><rect x="152" y="72" width="16" height="16" transform="rotate(0,160,80)"/><rect x="168" y="72" width="16" height="16" transform="rotate(0,176,80)"/><rect x="184" y="72" width="16" height="16" transform="rotate(0,192,80)"/><rect x="216" y="72" width="16" height="16" transform="rotate(0,224,80)"/><rect x="248" y="72" width="16" height="16" transform="rotate(0,256,80)"/><rect x="280" y="72" width="16" height="16" transform="rotate(0,288,80)"/><rect x="296" y="72" width="16" height="16" transform="rotate(0,304,80)"/><rect x="312" y="72" width="16" height="16" transform="rotate(0,320,80)"/><rect x="328" y="72" width="16" height="16" transform="rotate(0,336,80)"/><rect x="344" y="72" width="16" height="16" transform="rotate(0,352,80)"/><rect x="184" y="88" width="16" height="16" transform="rotate(0,192,96)"/><rect x="200" y="88" width="16" height="16" transform="rotate(0,208,96)"/><rect x="216" y="88" width="16" height="16" transform="rotate(0,224,96)"/><rect x="232" y="88" width="16" height="16" transform="rotate(0,240,96)"/><rect x="280" y="88" width="16" height="16" transform="rotate(0,288,96)"/><rect x="296" y="88" width="16" height="16" transform="rotate(0,304,96)"/><rect x="152" y="104" width="16" height="16" transform="rotate(0,160,112)"/><rect x="168" y="104" width="16" height="16" transform="rotate(0,176,112)"/><rect x="248" y="104" width="16" height="16" transform="rotate(0,256,112)"/><rect x="264" y="104" width="16" height="16" transform="rotate(0,272,112)"/><rect x="152" y="120" width="16" height="16" transform="rotate(0,160,128)"/><rect x="184" y="120" width="16" height="16" transform="rotate(0,192,128)"/><rect x="216" y="120" width="16" height="16" transform="rotate(0,224,128)"/><rect x="248" y="120" width="16" height="16" transform="rotate(0,256,128)"/><rect x="280" y="120" width="16" height="16" transform="rotate(0,288,128)"/><rect x="312" y="120" width="16" height="16" transform="rotate(0,320,128)"/><rect x="344" y="120" width="16" height="16" transform="rotate(0,352,128)"/><rect x="152" y="136" width="16" height="16" transform="rotate(0,160,144)"/><rect x="168" y="136" width="16" height="16" transform="rotate(0,176,144)"/><rect x="184" y="136" width="16" height="16" transform="rotate(0,192,144)"/><rect x="200" y="136" width="16" height="16" transform="rotate(0,208,144)"/><rect x="312" y="136" width="16" height="16" transform="rotate(0,320,144)"/><rect x="328" y="136" width="16" height="16" transform="rotate(0,336,144)"/><rect x="344" y="136" width="16" height="16" transform="rotate(0,352,144)"/><rect x="40" y="152" width="16" height="16" transform="rotate(0,48,160)"/><rect x="56" y="152" width="16" height="16" transform="rotate(0,64,160)"/><rect x="120" y="152" width="16" height="16" transform="rotate(0,128,160)"/><rect x="248" y="152" width="16" height="16" transform="rotate(0,256,160)"/><rect x="264" y="152" width="16" height="16" transform="rotate(0,272,160)"/><rect x="296" y="152" width="16" height="16" transform="rotate(0,304,160)"/><rect x="312" y="152" width="16" height="16" transform="rotate(0,320,160)"/><rect x="344" y="152" width="16" height="16" transform="rotate(0,352,160)"/><rect x="376" y="152" width="16" height="16" transform="rotate(0,384,160)"/><rect x="392" y="152" width="16" height="16" transform="rotate(0,400,160)"/><rect x="424" y="152" width="16" height="16" transform="rotate(0,432,160)"/><rect x="24" y="168" width="16" height="16" transform="rotate(0,32,176)"/><rect x="40" y="168" width="16" height="16" transform="rotate(0,48,176)"/><rect x="56" y="168" width="16" height="16" transform="rotate(0,64,176)"/><rect x="104" y="168" width="16" height="16" transform="rotate(0,112,176)"/><rect x="136" y="168" width="16" height="16" transform="rotate(0,144,176)"/><rect x="152" y="168" width="16" height="16" transform="rotate(0,160,176)"/><rect x="168" y="168" width="16" height="16" transform="rotate(0,176,176)"/><rect x="184" y="168" width="16" height="16" transform="rotate(0,192,176)"/><rect x="216" y="168" width="16" height="16" transform="rotate(0,224,176)"/><rect x="248" y="168" width="16" height="16" transform="rotate(0,256,176)"/><rect x="264" y="168" width="16" height="16" transform="rotate(0,272,176)"/><rect x="280" y="168" width="16" height="16" transform="rotate(0,288,176)"/><rect x="312" y="168" width="16" height="16" transform="rotate(0,320,176)"/><rect x="360" y="168" width="16" height="16" transform="rotate(0,368,176)"/><rect x="392" y="168" width="16" height="16" transform="rotate(0,400,176)"/><rect x="424" y="168" width="16" height="16" transform="rotate(0,432,176)"/><rect x="440" y="168" width="16" height="16" transform="rotate(0,448,176)"/><rect x="456" y="168" width="16" height="16" transform="rotate(0,464,176)"/><rect x="472" y="168" width="16" height="16" transform="rotate(0,480,176)"/><rect x="24" y="184" width="16" height="16" transform="rotate(0,32,192)"/><rect x="40" y="184" width="16" height="16" transform="rotate(0,48,192)"/><rect x="56" y="184" width="16" height="16" transform="rotate(0,64,192)"/><rect x="72" y="184" width="16" height="16" transform="rotate(0,80,192)"/><rect x="104" y="184" width="16" height="16" transform="rotate(0,112,192)"/><rect x="120" y="184" width="16" height="16" transform="rotate(0,128,192)"/><rect x="184" y="184" width="16" height="16" transform="rotate(0,192,192)"/><rect x="200" y="184" width="16" height="16" transform="rotate(0,208,192)"/><rect x="312" y="184" width="16" height="16" transform="rotate(0,320,192)"/><rect x="328" y="184" width="16" height="16" transform="rotate(0,336,192)"/><rect x="360" y="184" width="16" height="16" transform="rotate(0,368,192)"/><rect x="408" y="184" width="16" height="16" transform="rotate(0,416,192)"/><rect x="424" y="184" width="16" height="16" transform="rotate(0,432,192)"/><rect x="472" y="184" width="16" height="16" transform="rotate(0,480,192)"/><rect x="40" y="200" width="16" height="16" transform="rotate(0,48,208)"/><rect x="88" y="200" width="16" height="16" transform="rotate(0,96,208)"/><rect x="136" y="200" width="16" height="16" transform="rotate(0,144,208)"/><rect x="184" y="200" width="16" height="16" transform="rotate(0,192,208)"/><rect x="200" y="200" width="16" height="16" transform="rotate(0,208,208)"/><rect x="216" y="200" width="16" height="16" transform="rotate(0,224,208)"/><rect x="264" y="200" width="16" height="16" transform="rotate(0,272,208)"/><rect x="376" y="200" width="16" height="16" transform="rotate(0,384,208)"/><rect x="392" y="200" width="16" height="16" transform="rotate(0,400,208)"/><rect x="424" y="200" width="16" height="16" transform="rotate(0,432,208)"/><rect x="24" y="216" width="16" height="16" transform="rotate(0,32,224)"/><rect x="40" y="216" width="16" height="16" transform="rotate(0,48,224)"/><rect x="72" y="216" width="16" height="16" transform="rotate(0,80,224)"/><rect x="104" y="216" width="16" height="16" transform="rotate(0,112,224)"/><rect x="120" y="216" width="16" height="16" transform="rotate(0,128,224)"/><rect x="152" y="216" width="16" height="16" transform="rotate(0,160,224)"/><rect x="168" y="216" width="16" height="16" transform="rotate(0,176,224)"/><rect x="200" y="216" width="16" height="16" transform="rotate(0,208,224)"/><rect x="232" y="216" width="16" height="16" transform="rotate(0,240,224)"/><rect x="264" y="216" width="16" height="16" transform="rotate(0,272,224)"/><rect x="280" y="216" width="16" height="16" transform="rotate(0,288,224)"/><rect x="344" y="216" width="16" height="16" transform="rotate(0,352,224)"/><rect x="360" y="216" width="16" height="16" transform="rotate(0,368,224)"/><rect x="376" y="216" width="16" height="16" transform="rotate(0,384,224)"/><rect x="424" y="216" width="16" height="16" transform="rotate(0,432,224)"/><rect x="456" y="216" width="16" height="16" transform="rotate(0,464,224)"/><rect x="24" y="232" width="16" height="16" transform="rotate(0,32,240)"/><rect x="40" y="232" width="16" height="16" transform="rotate(0,48,240)"/><rect x="88" y="232" width="16" height="16" transform="rotate(0,96,240)"/><rect x="104" y="232" width="16" height="16" transform="rotate(0,112,240)"/><rect x="136" y="232" width="16" height="16" transform="rotate(0,144,240)"/><rect x="168" y="232" width="16" height="16" transform="rotate(0,176,240)"/><rect x="200" y="232" width="16" height="16" transform="rotate(0,208,240)"/><rect x="216" y="232" width="16" height="16" transform="rotate(0,224,240)"/><rect x="280" y="232" width="16" height="16" transform="rotate(0,288,240)"/><rect x="296" y="232" width="16" height="16" transform="rotate(0,304,240)"/><rect x="328" y="232" width="16" height="16" transform="rotate(0,336,240)"/><rect x="376" y="232" width="16" height="16" transform="rotate(0,384,240)"/><rect x="424" y="232" width="16" height="16" transform="rotate(0,432,240)"/><rect x="472" y="232" width="16" height="16" transform="rotate(0,480,240)"/><rect x="24" y="248" width="16" height="16" transform="rotate(0,32,256)"/><rect x="40" y="248" width="16" height="16" transform="rotate(0,48,256)"/><rect x="56" y="248" width="16" height="16" transform="rotate(0,64,256)"/><rect x="72" y="248" width="16" height="16" transform="rotate(0,80,256)"/><rect x="104" y="248" width="16" height="16" transform="rotate(0,112,256)"/><rect x="120" y="248" width="16" height="16" transform="rotate(0,128,256)"/><rect x="168" y="248" width="16" height="16" transform="rotate(0,176,256)"/><rect x="184" y="248" width="16" height="16" transform="rotate(0,192,256)"/><rect x="200" y="248" width="16" height="16" transform="rotate(0,208,256)"/><rect x="216" y="248" width="16" height="16" transform="rotate(0,224,256)"/><rect x="264" y="248" width="16" height="16" transform="rotate(0,272,256)"/><rect x="280" y="248" width="16" height="16" transform="rotate(0,288,256)"/><rect x="328" y="248" width="16" height="16" transform="rotate(0,336,256)"/><rect x="360" y="248" width="16" height="16" transform="rotate(0,368,256)"/><rect x="376" y="248" width="16" height="16" transform="rotate(0,384,256)"/><rect x="424" y="248" width="16" height="16" transform="rotate(0,432,256)"/><rect x="440" y="248" width="16" height="16" transform="rotate(0,448,256)"/><rect x="472" y="248" width="16" height="16" transform="rotate(0,480,256)"/><rect x="24" y="264" width="16" height="16" transform="rotate(0,32,272)"/><rect x="72" y="264" width="16" height="16" transform="rotate(0,80,272)"/><rect x="104" y="264" width="16" height="16" transform="rotate(0,112,272)"/><rect x="136" y="264" width="16" height="16" transform="rotate(0,144,272)"/><rect x="152" y="264" width="16" height="16" transform="rotate(0,160,272)"/><rect x="184" y="264" width="16" height="16" transform="rotate(0,192,272)"/><rect x="200" y="264" width="16" height="16" transform="rotate(0,208,272)"/><rect x="248" y="264" width="16" height="16" transform="rotate(0,256,272)"/><rect x="264" y="264" width="16" height="16" transform="rotate(0,272,272)"/><rect x="280" y="264" width="16" height="16" transform="rotate(0,288,272)"/><rect x="296" y="264" width="16" height="16" transform="rotate(0,304,272)"/><rect x="328" y="264" width="16" height="16" transform="rotate(0,336,272)"/><rect x="376" y="264" width="16" height="16" transform="rotate(0,384,272)"/><rect x="424" y="264" width="16" height="16" transform="rotate(0,432,272)"/><rect x="472" y="264" width="16" height="16" transform="rotate(0,480,272)"/><rect x="40" y="280" width="16" height="16" transform="rotate(0,48,288)"/><rect x="56" y="280" width="16" height="16" transform="rotate(0,64,288)"/><rect x="72" y="280" width="16" height="16" transform="rotate(0,80,288)"/><rect x="88" y="280" width="16" height="16" transform="rotate(0,96,288)"/><rect x="120" y="280" width="16" height="16" transform="rotate(0,128,288)"/><rect x="152" y="280" width="16" height="16" transform="rotate(0,160,288)"/><rect x="216" y="280" width="16" height="16" transform="rotate(0,224,288)"/><rect x="232" y="280" width="16" height="16" transform="rotate(0,240,288)"/><rect x="296" y="280" width="16" height="16" transform="rotate(0,304,288)"/><rect x="328" y="280" width="16" height="16" transform="rotate(0,336,288)"/><rect x="344" y="280" width="16" height="16" transform="rotate(0,352,288)"/><rect x="376" y="280" width="16" height="16" transform="rotate(0,384,288)"/><rect x="408" y="280" width="16" height="16" transform="rotate(0,416,288)"/><rect x="56" y="296" width="16" height="16" transform="rotate(0,64,304)"/><rect x="72" y="296" width="16" height="16" transform="rotate(0,80,304)"/><rect x="136" y="296" width="16" height="16" transform="rotate(0,144,304)"/><rect x="200" y="296" width="16" height="16" transform="rotate(0,208,304)"/><rect x="216" y="296" width="16" height="16" transform="rotate(0,224,304)"/><rect x="232" y="296" width="16" height="16" transform="rotate(0,240,304)"/><rect x="248" y="296" width="16" height="16" transform="rotate(0,256,304)"/><rect x="296" y="296" width="16" height="16" transform="rotate(0,304,304)"/><rect x="344" y="296" width="16" height="16" transform="rotate(0,352,304)"/><rect x="392" y="296" width="16" height="16" transform="rotate(0,400,304)"/><rect x="424" y="296" width="16" height="16" transform="rotate(0,432,304)"/><rect x="440" y="296" width="16" height="16" transform="rotate(0,448,304)"/><rect x="472" y="296" width="16" height="16" transform="rotate(0,480,304)"/><rect x="24" y="312" width="16" height="16" transform="rotate(0,32,320)"/><rect x="40" y="312" width="16" height="16" transform="rotate(0,48,320)"/><rect x="88" y="312" width="16" height="16" transform="rotate(0,96,320)"/><rect x="120" y="312" width="16" height="16" transform="rotate(0,128,320)"/><rect x="136" y="312" width="16" height="16" transform="rotate(0,144,320)"/><rect x="168" y="312" width="16" height="16" transform="rotate(0,176,320)"/><rect x="264" y="312" width="16" height="16" transform="rotate(0,272,320)"/><rect x="296" y="312" width="16" height="16" transform="rotate(0,304,320)"/><rect x="328" y="312" width="16" height="16" transform="rotate(0,336,320)"/><rect x="392" y="312" width="16" height="16" transform="rotate(0,400,320)"/><rect x="408" y="312" width="16" height="16" transform="rotate(0,416,320)"/><rect x="424" y="312" width="16" height="16" transform="rotate(0,432,320)"/><rect x="440" y="312" width="16" height="16" transform="rotate(0,448,320)"/><rect x="472" y="312" width="16" height="16" transform="rotate(0,480,320)"/><rect x="56" y="328" width="16" height="16" transform="rotate(0,64,336)"/><rect x="88" y="328" width="16" height="16" transform="rotate(0,96,336)"/><rect x="136" y="328" width="16" height="16" transform="rotate(0,144,336)"/><rect x="152" y="328" width="16" height="16" transform="rotate(0,160,336)"/><rect x="232" y="328" width="16" height="16" transform="rotate(0,240,336)"/><rect x="248" y="328" width="16" height="16" transform="rotate(0,256,336)"/><rect x="360" y="328" width="16" height="16" transform="rotate(0,368,336)"/><rect x="376" y="328" width="16" height="16" transform="rotate(0,384,336)"/><rect x="472" y="328" width="16" height="16" transform="rotate(0,480,336)"/><rect x="24" y="344" width="16" height="16" transform="rotate(0,32,352)"/><rect x="40" y="344" width="16" height="16" transform="rotate(0,48,352)"/><rect x="72" y="344" width="16" height="16" transform="rotate(0,80,352)"/><rect x="120" y="344" width="16" height="16" transform="rotate(0,128,352)"/><rect x="184" y="344" width="16" height="16" transform="rotate(0,192,352)"/><rect x="200" y="344" width="16" height="16" transform="rotate(0,208,352)"/><rect x="216" y="344" width="16" height="16" transform="rotate(0,224,352)"/><rect x="264" y="344" width="16" height="16" transform="rotate(0,272,352)"/><rect x="280" y="344" width="16" height="16" transform="rotate(0,288,352)"/><rect x="328" y="344" width="16" height="16" transform="rotate(0,336,352)"/><rect x="344" y="344" width="16" height="16" transform="rotate(0,352,352)"/><rect x="360" y="344" width="16" height="16" transform="rotate(0,368,352)"/><rect x="376" y="344" width="16" height="16" transform="rotate(0,384,352)"/><rect x="392" y="344" width="16" height="16" transform="rotate(0,400,352)"/><rect x="408" y="344" width="16" height="16" transform="rotate(0,416,352)"/><rect x="424" y="344" width="16" height="16" transform="rotate(0,432,352)"/><rect x="456" y="344" width="16" height="16" transform="rotate(0,464,352)"/><rect x="152" y="360" width="16" height="16" transform="rotate(0,160,368)"/><rect x="216" y="360" width="16" height="16" transform="rotate(0,224,368)"/><rect x="232" y="360" width="16" height="16" transform="rotate(0,240,368)"/><rect x="264" y="360" width="16" height="16" transform="rotate(0,272,368)"/><rect x="280" y="360" width="16" height="16" transform="rotate(0,288,368)"/><rect x="328" y="360" width="16" height="16" transform="rotate(0,336,368)"/><rect x="344" y="360" width="16" height="16" transform="rotate(0,352,368)"/><rect x="408" y="360" width="16" height="16" transform="rotate(0,416,368)"/><rect x="424" y="360" width="16" height="16" transform="rotate(0,432,368)"/><rect x="472" y="360" width="16" height="16" transform="rotate(0,480,368)"/><rect x="168" y="376" width="16" height="16" transform="rotate(0,176,384)"/><rect x="216" y="376" width="16" height="16" transform="rotate(0,224,384)"/><rect x="232" y="376" width="16" height="16" transform="rotate(0,240,384)"/><rect x="264" y="376" width="16" height="16" transform="rotate(0,272,384)"/><rect x="280" y="376" width="16" height="16" transform="rotate(0,288,384)"/><rect x="296" y="376" width="16" height="16" transform="rotate(0,304,384)"/><rect x="312" y="376" width="16" height="16" transform="rotate(0,320,384)"/><rect x="344" y="376" width="16" height="16" transform="rotate(0,352,384)"/><rect x="376" y="376" width="16" height="16" transform="rotate(0,384,384)"/><rect x="408" y="376" width="16" height="16" transform="rotate(0,416,384)"/><rect x="424" y="376" width="16" height="16" transform="rotate(0,432,384)"/><rect x="440" y="376" width="16" height="16" transform="rotate(0,448,384)"/><rect x="456" y="376" width="16" height="16" transform="rotate(0,464,384)"/><rect x="472" y="376" width="16" height="16" transform="rotate(0,480,384)"/><rect x="184" y="392" width="16" height="16" transform="rotate(0,192,400)"/><rect x="200" y="392" width="16" height="16" transform="rotate(0,208,400)"/><rect x="264" y="392" width="16" height="16" transform="rotate(0,272,400)"/><rect x="280" y="392" width="16" height="16" transform="rotate(0,288,400)"/><rect x="312" y="392" width="16" height="16" transform="rotate(0,320,400)"/><rect x="328" y="392" width="16" height="16" transform="rotate(0,336,400)"/><rect x="344" y="392" width="16" height="16" transform="rotate(0,352,400)"/><rect x="408" y="392" width="16" height="16" transform="rotate(0,416,400)"/><rect x="424" y="392" width="16" height="16" transform="rotate(0,432,400)"/><rect x="456" y="392" width="16" height="16" transform="rotate(0,464,400)"/><rect x="472" y="392" width="16" height="16" transform="rotate(0,480,400)"/><rect x="216" y="408" width="16" height="16" transform="rotate(0,224,416)"/><rect x="232" y="408" width="16" height="16" transform="rotate(0,240,416)"/><rect x="280" y="408" width="16" height="16" transform="rotate(0,288,416)"/><rect x="296" y="408" width="16" height="16" transform="rotate(0,304,416)"/><rect x="312" y="408" width="16" height="16" transform="rotate(0,320,416)"/><rect x="328" y="408" width="16" height="16" transform="rotate(0,336,416)"/><rect x="344" y="408" width="16" height="16" transform="rotate(0,352,416)"/><rect x="360" y="408" width="16" height="16" transform="rotate(0,368,416)"/><rect x="376" y="408" width="16" height="16" transform="rotate(0,384,416)"/><rect x="392" y="408" width="16" height="16" transform="rotate(0,400,416)"/><rect x="408" y="408" width="16" height="16" transform="rotate(0,416,416)"/><rect x="456" y="408" width="16" height="16" transform="rotate(0,464,416)"/><rect x="168" y="424" width="16" height="16" transform="rotate(0,176,432)"/><rect x="216" y="424" width="16" height="16" transform="rotate(0,224,432)"/><rect x="280" y="424" width="16" height="16" transform="rotate(0,288,432)"/><rect x="296" y="424" width="16" height="16" transform="rotate(0,304,432)"/><rect x="312" y="424" width="16" height="16" transform="rotate(0,320,432)"/><rect x="328" y="424" width="16" height="16" transform="rotate(0,336,432)"/><rect x="344" y="424" width="16" height="16" transform="rotate(0,352,432)"/><rect x="392" y="424" width="16" height="16" transform="rotate(0,400,432)"/><rect x="408" y="424" width="16" height="16" transform="rotate(0,416,432)"/><rect x="424" y="424" width="16" height="16" transform="rotate(0,432,432)"/><rect x="440" y="424" width="16" height="16" transform="rotate(0,448,432)"/><rect x="456" y="424" width="16" height="16" transform="rotate(0,464,432)"/><rect x="152" y="440" width="16" height="16" transform="rotate(0,160,448)"/><rect x="184" y="440" width="16" height="16" transform="rotate(0,192,448)"/><rect x="216" y="440" width="16" height="16" transform="rotate(0,224,448)"/><rect x="232" y="440" width="16" height="16" transform="rotate(0,240,448)"/><rect x="248" y="440" width="16" height="16" transform="rotate(0,256,448)"/><rect x="280" y="440" width="16" height="16" transform="rotate(0,288,448)"/><rect x="296" y="440" width="16" height="16" transform="rotate(0,304,448)"/><rect x="312" y="440" width="16" height="16" transform="rotate(0,320,448)"/><rect x="360" y="440" width="16" height="16" transform="rotate(0,368,448)"/><rect x="408" y="440" width="16" height="16" transform="rotate(0,416,448)"/><rect x="456" y="440" width="16" height="16" transform="rotate(0,464,448)"/><rect x="472" y="440" width="16" height="16" transform="rotate(0,480,448)"/><rect x="152" y="456" width="16" height="16" transform="rotate(0,160,464)"/><rect x="168" y="456" width="16" height="16" transform="rotate(0,176,464)"/><rect x="200" y="456" width="16" height="16" transform="rotate(0,208,464)"/><rect x="248" y="456" width="16" height="16" transform="rotate(0,256,464)"/><rect x="264" y="456" width="16" height="16" transform="rotate(0,272,464)"/><rect x="280" y="456" width="16" height="16" transform="rotate(0,288,464)"/><rect x="312" y="456" width="16" height="16" transform="rotate(0,320,464)"/><rect x="328" y="456" width="16" height="16" transform="rotate(0,336,464)"/><rect x="376" y="456" width="16" height="16" transform="rotate(0,384,464)"/><rect x="184" y="472" width="16" height="16" transform="rotate(0,192,480)"/><rect x="216" y="472" width="16" height="16" transform="rotate(0,224,480)"/><rect x="280" y="472" width="16" height="16" transform="rotate(0,288,480)"/><rect x="344" y="472" width="16" height="16" transform="rotate(0,352,480)"/><rect x="360" y="472" width="16" height="16" transform="rotate(0,368,480)"/><rect x="392" y="472" width="16" height="16" transform="rotate(0,400,480)"/><rect x="408" y="472" width="16" height="16" transform="rotate(0,416,480)"/><rect x="472" y="472" width="16" height="16" transform="rotate(0,480,480)"/></g><g class="corners-square-color-0-0"><path clip-rule="evenodd" d="M 24 24v 112h 112v -112zM 40 40h 80v 80h -80z" transform="rotate(0,80,80)"/></g><g class="corners-dot-color-0-0"><rect x="56" y="56" width="48" height="48" transform="rotate(0,80,80)"/></g><g class="corners-square-color-1-0"><path clip-rule="evenodd" d="M 376 24v 112h 112v -112zM 392 40h 80v 80h -80z" transform="rotate(90,432,80)"/></g><g class="corners-dot-color-1-0"><rect x="408" y="56" width="48" height="48" transform="rotate(90,432,80)"/></g><g class="corners-square-color-0-1"><path clip-rule="evenodd" d="M 24 376v 112h 112v -112zM 40 392h 80v 80h -80z" transform="rotate(-90,80,432)"/></g><g class="corners-dot-color-0-1"><rect x="56" y="408" width="48" height="48" transform="rotate(-90,80,432)"/></g></svg>